<svg width="126" height="126" viewBox="0 0 126 126" fill="none" xmlns="http://www.w3.org/2000/svg">
<rect x="0.164062" width="125.665" height="125.665" rx="62.8325" fill="url(#paint0_linear_18_148)"/>
<path d="M78.0241 40.9074C66.7123 40.9074 42.2448 37.9663 42.2448 37.9663C42.2448 37.9663 37.3524 43.3479 34.5245 46.1759C29.256 51.4443 29.7141 58.1127 29.0156 66.4297C29.8838 89.5454 44.6825 107.964 62.8691 107.964C80.951 107.964 95.6903 89.7518 96.7056 66.8143C95.7101 56.5488 88.7986 40.9074 78.0241 40.9074Z" fill="#F7DECE"/>
<path d="M62.8725 96.6487C56.2353 96.6487 52.7625 93.3683 52.3893 92.9922C51.8552 92.4657 51.5522 91.7486 51.5469 90.9987C51.5416 90.2488 51.8345 89.5275 52.361 88.9934C52.8875 88.4594 53.6046 88.1564 54.3545 88.1511C55.1044 88.1458 55.8257 88.4386 56.3597 88.9652C56.5039 89.0981 58.639 90.9928 62.8725 90.9928C67.1681 90.9928 69.3004 89.0415 69.3909 88.9595C69.934 88.4507 70.6545 88.1745 71.3985 88.1898C72.1425 88.2052 72.851 88.5108 73.3727 89.0415C73.8901 89.5699 74.1784 90.2808 74.1753 91.0203C74.1721 91.7598 73.8776 92.4683 73.3557 92.9922C72.9824 93.3683 69.5097 96.6487 62.8725 96.6487ZM65.7004 82.5089H60.0445C59.2945 82.5089 58.5752 82.211 58.0449 81.6807C57.5145 81.1503 57.2166 80.431 57.2166 79.681C57.2166 78.931 57.5145 78.2117 58.0449 77.6813C58.5752 77.151 59.2945 76.853 60.0445 76.853H65.7004C66.4505 76.853 67.1698 77.151 67.7001 77.6813C68.2305 78.2117 68.5284 78.931 68.5284 79.681C68.5284 80.431 68.2305 81.1503 67.7001 81.6807C67.1698 82.211 66.4505 82.5089 65.7004 82.5089Z" fill="#C1694F"/>
<path d="M48.7303 71.1961C47.9803 71.1961 47.261 70.8982 46.7306 70.3678C46.2003 69.8375 45.9023 69.1182 45.9023 68.3681V62.7122C45.9023 61.9622 46.2003 61.2429 46.7306 60.7126C47.261 60.1822 47.9803 59.8843 48.7303 59.8843C49.4803 59.8843 50.1996 60.1822 50.73 60.7126C51.2603 61.2429 51.5583 61.9622 51.5583 62.7122V68.3681C51.5583 69.1182 51.2603 69.8375 50.73 70.3678C50.1996 70.8982 49.4803 71.1961 48.7303 71.1961ZM77.0099 71.1961C76.2598 71.1961 75.5405 70.8982 75.0102 70.3678C74.4798 69.8375 74.1819 69.1182 74.1819 68.3681V62.7122C74.1819 61.9622 74.4798 61.2429 75.0102 60.7126C75.5405 60.1822 76.2598 59.8843 77.0099 59.8843C77.7599 59.8843 78.4792 60.1822 79.0095 60.7126C79.5399 61.2429 79.8378 61.9622 79.8378 62.7122V68.3681C79.8378 69.1182 79.5399 69.8375 79.0095 70.3678C78.4792 70.8982 77.7599 71.1961 77.0099 71.1961Z" fill="#662113"/>
<path d="M62.8635 17.7007C86.0669 17.7007 100.563 34.8211 100.563 49.0882C100.563 63.3524 97.6615 69.0648 94.7629 63.3524C91.8614 57.6484 88.9627 49.1136 88.9627 49.1136C88.9627 49.1136 79.1271 55.485 71.4209 46.2319C71.4209 46.2319 74.4666 63.3524 57.0634 46.2319C57.0634 46.2319 59.9649 57.6484 42.5645 43.3813C42.5645 43.3813 33.8629 49.0882 30.9642 63.3524C30.1611 67.3143 25.1641 63.3524 25.1641 49.0882C25.1612 34.8211 36.7615 17.7007 62.8635 17.7007Z" fill="#3CB9A0"/>
<circle cx="79.0224" cy="82.3247" r="1.07713" fill="#FF9494"/>
<circle cx="80.6401" cy="85.0166" r="0.538564" fill="#FF9494"/>
<circle cx="78.4829" cy="88.25" r="1.61569" fill="#FF9494"/>
<circle cx="83.331" cy="88.7856" r="1.07713" fill="#FF9494"/>
<circle cx="86.0219" cy="85.0156" r="1.61569" fill="#FF9494"/>
<defs>
<linearGradient id="paint0_linear_18_148" x1="62.9965" y1="0" x2="62.9965" y2="125.665" gradientUnits="userSpaceOnUse">
<stop stop-color="#3CB9A0"/>
<stop offset="1" stop-color="#CFE8E3"/>
</linearGradient>
</defs>
</svg>
