<svg width="127" height="126" viewBox="0 0 127 126" fill="none" xmlns="http://www.w3.org/2000/svg">
<circle cx="63.3168" cy="62.8325" r="62.8325" fill="url(#paint0_linear_18_191)"/>
<path d="M64.7238 87.6246C64.7238 86.8564 64.4418 86.1312 63.7921 85.6477C63.3388 85.3102 62.941 84.935 62.6287 84.5145C62.4473 84.2727 62.2937 84.0234 62.1627 83.7717C62.0141 83.4795 61.8958 83.1874 61.8027 82.8978C61.6969 82.5653 61.6214 82.238 61.5659 81.9182C61.5029 81.553 61.4702 81.2005 61.4476 80.8555C61.4249 80.4651 61.4199 80.0925 61.4199 79.7349C61.4199 79.405 61.4173 79.0852 61.4173 78.793V78.5814V77.1081V76.5239C61.4173 76.5239 61.4173 68.415 61.4173 65.5896C61.4173 64.2524 61.032 63.0159 59.8485 61.8323C57.2068 59.1906 53.1499 60.213 52.9081 60.135L43.7265 62.3662C46.1037 65.6047 49.4278 68.1934 53.4746 69.6743V73.0865C39.7753 76.9394 29.8281 88.7954 29.8281 105.527H42.8349H51.8531V103.575C51.8531 102.55 51.906 101.613 52.0168 100.752C52.1251 99.8885 52.2939 99.0977 52.5306 98.3724C52.6892 97.8889 52.8807 97.4331 53.1049 97.005C53.4045 96.4334 53.7723 95.9172 54.2003 95.4638C54.4471 95.2045 56.2453 93.1797 58.8491 93.1797C63.0342 93.18 64.7238 91.0294 64.7238 87.6246Z" fill="#F7DECE"/>
<path d="M72.0395 72.7262V67.6745C75.905 65.2293 79.6774 57.8257 79.6774 48.9136V43.0963C79.1084 31.4469 69.2015 22.4642 57.5521 23.0334C46.3381 23.5824 37.5973 32.7866 37.4739 43.8669L32.8353 50.233C32.4575 50.7341 32.2762 51.2832 32.576 51.8599C32.8857 52.4467 33.538 52.555 34.0668 52.6356L37.8869 53.2172L38.247 56.8435C38.247 56.8435 53.0543 56.899 55.4442 56.899C65.502 56.899 64.9405 59.6388 64.9405 65.5895C64.9405 68.4149 64.9405 76.0126 64.9405 76.0126V76.3576C64.9405 76.685 64.9355 77.0023 64.9355 77.3019C64.9355 77.6696 64.9658 78.0146 64.9658 78.3218C64.9658 78.9715 65.5778 79.664 65.6709 79.7773C65.7238 79.8403 65.7868 79.9008 65.8624 79.9662C65.948 80.0368 66.0539 80.1072 66.1897 80.1802C66.3433 80.2658 66.5372 80.349 66.779 80.427C67.056 80.5151 67.4009 80.5932 67.814 80.6536C68.1363 80.6965 68.504 80.7316 68.9194 80.7467C69.6674 80.7065 70.4858 80.7543 71.3244 80.9482C76.8747 82.2224 80.7931 90.9357 75.2377 97.6972C69.68 104.459 61.5813 102.114 58.2823 100.18C57.4841 99.7142 56.0814 98.9688 55.8195 99.9938C55.7112 100.417 55.6356 100.905 55.5752 101.454C55.5097 102.082 55.4719 102.787 55.4745 103.575V105.526H81.6089H97.0836C97.0835 88.2311 86.4539 76.146 72.0395 72.7262Z" fill="#F7DECE"/>
<g clip-path="url(#clip0_18_191)">
<mask id="mask0_18_191" style="mask-type:alpha" maskUnits="userSpaceOnUse" x="29" y="23" width="69" height="83">
<g clip-path="url(#clip1_18_191)">
<path d="M64.7278 87.6246C64.7278 86.8564 64.4457 86.1312 63.796 85.6477C63.3427 85.3102 62.9449 84.935 62.6326 84.5145C62.4512 84.2727 62.2977 84.0234 62.1666 83.7717C62.018 83.4795 61.8997 83.1874 61.8066 82.8978C61.7008 82.5653 61.6253 82.238 61.5698 81.9182C61.5068 81.553 61.4741 81.2005 61.4515 80.8555C61.4288 80.4651 61.4238 80.0925 61.4238 79.7349C61.4238 79.405 61.4212 79.0852 61.4212 78.793V78.5814V77.1081V76.5239C61.4212 76.5239 61.4212 68.415 61.4212 65.5896C61.4212 64.2524 61.0359 63.0159 59.8524 61.8323C57.2107 59.1906 53.1538 60.213 52.912 60.135L43.7304 62.3662C46.1076 65.6047 49.4317 68.1934 53.4785 69.6743V73.0865C39.7792 76.9394 29.832 88.7954 29.832 105.527H42.8388H51.857V103.575C51.857 102.55 51.9099 101.613 52.0207 100.752C52.1291 99.8885 52.2978 99.0977 52.5345 98.3724C52.6931 97.8889 52.8846 97.4331 53.1088 97.005C53.4084 96.4334 53.7762 95.9172 54.2043 95.4638C54.451 95.2045 56.2492 93.1797 58.853 93.1797C63.0381 93.18 64.7278 91.0294 64.7278 87.6246Z" fill="white"/>
<path d="M72.0434 72.7262V67.6745C75.9089 65.2293 79.6814 57.8257 79.6814 48.9136V43.0963C79.1123 31.4469 69.2054 22.4642 57.556 23.0334C46.342 23.5824 37.6012 32.7866 37.4778 43.8669L32.8392 50.233C32.4614 50.7341 32.2801 51.2832 32.5799 51.8599C32.8896 52.4467 33.5419 52.555 34.0707 52.6356L37.8908 53.2172L38.2509 56.8435C38.2509 56.8435 53.0582 56.899 55.4481 56.899C65.5059 56.899 64.9444 59.6388 64.9444 65.5895C64.9444 68.4149 64.9444 76.0126 64.9444 76.0126V76.3576C64.9444 76.685 64.9394 77.0023 64.9394 77.3019C64.9394 77.6696 64.9697 78.0146 64.9697 78.3218C64.9697 78.9715 65.5817 79.664 65.6748 79.7773C65.7277 79.8403 65.7907 79.9008 65.8663 79.9662C65.9519 80.0368 66.0578 80.1072 66.1936 80.1802C66.3472 80.2658 66.5411 80.349 66.7829 80.427C67.0599 80.5152 67.4048 80.5932 67.8179 80.6536C68.1402 80.6965 68.5079 80.7316 68.9234 80.7467C69.6713 80.7065 70.4897 80.7543 71.3283 80.9482C76.8786 82.2224 80.797 90.9357 75.2416 97.6972C69.6839 104.459 61.5852 102.114 58.2862 100.18C57.488 99.7142 56.0853 98.9688 55.8234 99.9938C55.7151 100.417 55.6395 100.905 55.5791 101.454C55.5137 102.082 55.4758 102.787 55.4784 103.575V105.526H81.6128H97.0875C97.0874 88.2311 86.4578 76.146 72.0434 72.7262Z" fill="#F7DECE"/>
</g>
</mask>
<g mask="url(#mask0_18_191)">
<rect x="29.832" y="72.5664" width="67.2573" height="33.6286" fill="#3CB9A0"/>
</g>
</g>
<defs>
<linearGradient id="paint0_linear_18_191" x1="63.3168" y1="0" x2="63.3168" y2="125.665" gradientUnits="userSpaceOnUse">
<stop stop-color="#3CB9A0"/>
<stop offset="1" stop-color="#CFE8E3"/>
</linearGradient>
<clipPath id="clip0_18_191">
<rect width="67.2574" height="82.519" fill="white" transform="translate(29.832 23.0078)"/>
</clipPath>
<clipPath id="clip1_18_191">
<rect width="67.2574" height="82.519" fill="white" transform="translate(29.832 23.0078)"/>
</clipPath>
</defs>
</svg>
