<svg width="127" height="126" viewBox="0 0 127 126" fill="none" xmlns="http://www.w3.org/2000/svg">
<rect x="0.5" width="125.665" height="125.665" rx="62.8325" fill="url(#paint0_linear_18_114)"/>
<path d="M46.6324 47.7928L47.1713 47.7466C47.3753 47.7235 47.56 47.6504 47.714 47.5426L47.7101 47.5464C48.2258 49.3246 48.8571 51.1951 49.6461 53.1542C50.6583 55.7175 51.6552 57.8229 52.7713 59.855L52.6174 59.5471C52.525 60.9481 52.4134 62.3876 52.2671 63.7809C52.1979 64.6391 52.0285 65.4397 51.7706 66.1941L51.7899 66.1248C51.7437 66.144 51.6783 74.1304 51.6783 74.1304C51.6821 79.3379 55.2885 83.6986 60.138 84.8571L60.215 84.8725C60.4344 84.3144 60.9655 83.9257 61.589 83.9257H63.7983C64.4179 83.9334 64.9491 84.3183 65.1684 84.861L65.1723 84.8725C70.1104 83.7102 73.7321 79.3494 73.7514 74.1381C73.7514 74.1381 73.6166 66.1825 73.5474 66.1287C73.3357 65.4551 73.1663 64.6622 73.0778 63.8463L73.074 63.7886C72.9393 62.3876 72.8507 60.9827 72.7237 59.5548C73.6744 57.8382 74.6712 55.7368 75.5488 53.5699L75.695 53.1619C76.484 51.2028 77.096 49.3362 77.631 47.5541C77.7811 47.6619 77.9658 47.735 78.166 47.7581H78.1698L78.7125 47.8043C79.3668 47.8736 79.9441 47.3348 79.998 46.4996L80.583 39.0674C80.583 39.0636 80.583 39.0597 80.583 39.0597C80.583 38.4324 80.1135 37.9166 79.5092 37.8397H79.5015H79.4361C79.5862 36.7581 79.6709 35.5111 79.6709 34.2449C79.6709 31.4814 79.2629 28.8103 78.5047 26.297L78.5547 26.4933C76.3339 21.6207 71.9309 18.0836 66.6272 17.0944L66.5271 17.079C65.3878 16.8442 64.06 16.6864 62.7052 16.6479H62.6705H62.6244C61.2426 16.6749 59.9148 16.8288 58.6293 17.1021L58.7678 17.079C53.3717 18.0951 48.9764 21.6322 46.7825 26.3894L46.7402 26.4933C46.0243 28.8026 45.6125 31.4583 45.6125 34.2064C45.6125 35.488 45.701 36.7504 45.8742 37.9821L45.8588 37.8397C45.2468 37.9089 44.7734 38.4208 44.7734 39.0444V39.0713L45.3585 46.5034C45.4123 47.3579 45.9974 47.8736 46.6286 47.8043L46.6324 47.7928Z" fill="#F7DECE"/>
<path d="M103.93 96.9819C103.661 85.2814 102.49 82.6334 101.859 80.8399C101.609 80.1201 101.405 75.2552 93.3687 72.0992C88.4422 70.1593 82.0839 70.1209 76.7032 67.8462V74.1737C76.6917 80.9784 71.8191 86.6401 65.3723 87.8756L65.2837 87.891C65.1644 88.5914 64.564 89.1149 63.8443 89.1226H63.775V93.8951C63.775 98.5599 67.5546 102.34 72.2193 102.34C76.8841 102.34 80.6637 98.5599 80.6637 93.8951V90.562C78.3236 90.2118 76.5493 88.2181 76.5493 85.8087C76.5493 83.1569 78.7008 81.0054 81.3526 81.0054C84.0045 81.0054 86.156 83.1569 86.156 85.8087C86.156 87.9102 84.8051 89.6961 82.9268 90.3504L82.8922 90.3619V93.8951V94.076C82.8922 99.9725 78.1119 104.753 72.2155 104.753C66.3191 104.753 61.5388 99.9725 61.5388 94.076C61.5388 94.0106 61.5388 93.949 61.5388 93.8836V93.8913V89.0764C60.8537 89.0302 60.2995 88.5145 60.1917 87.8525V87.8448C53.6872 86.5785 48.8376 80.9361 48.8222 74.1583V67.7808C43.4185 70.1016 37.0217 70.1478 32.0682 72.0915C24.0088 75.2437 23.824 80.097 23.5777 80.8283C22.9619 82.6296 21.7764 85.266 21.507 96.9742C21.4608 98.5137 21.507 100.873 26.1487 102.936C36.2558 106.9 49.2764 108.132 62.1123 109.017H63.3439C76.2067 108.14 89.2081 106.912 99.3075 102.936C103.93 100.885 103.972 98.5368 103.93 96.9819ZM47.4251 92.2094H42.6295V97.0243H39.204V92.2247H34.4083V88.7993H39.204V84.0036H42.6295V88.7993H47.4251V92.2094Z" fill="#3CB9A0"/>
<path d="M83.9501 85.7694C83.9501 84.3376 82.7916 83.1753 81.3598 83.1753C79.928 83.1753 78.7695 84.3338 78.7695 85.7656C78.7695 87.1973 79.928 88.3558 81.3598 88.3558C82.7877 88.3558 83.9462 87.1973 83.9501 85.7694Z" fill="#111827"/>
<defs>
<linearGradient id="paint0_linear_18_114" x1="63.3325" y1="0" x2="63.3325" y2="125.665" gradientUnits="userSpaceOnUse">
<stop stop-color="#3CB9A0"/>
<stop offset="1" stop-color="#CFE8E3"/>
</linearGradient>
</defs>
</svg>
