<svg width="127" height="126" viewBox="0 0 127 126" fill="none" xmlns="http://www.w3.org/2000/svg">
<circle cx="63.3325" cy="62.8325" r="62.8325" fill="url(#paint0_linear_18_121)"/>
<path d="M69.5598 50.3013H56.5993C51.3702 50.3013 46.8789 54.7954 46.8789 60.0216V115.11H77.9502V88.9902L79.283 83.8807V60.0216C79.283 54.7925 74.7889 50.3013 69.5598 50.3013Z" fill="#3CB9A0"/>
<path d="M57.5379 58.2388C54.0572 58.2388 50.7191 59.6215 48.2579 62.0826C45.7967 64.5438 44.4141 67.8819 44.4141 71.3626C44.4141 74.8432 45.7967 78.1813 48.2579 80.6425C50.7191 83.1037 54.0572 84.4864 57.5379 84.4864V58.2388Z" fill="#0EAA8B"/>
<path d="M57.5394 61.1567C54.8323 61.1567 52.236 62.2322 50.3217 64.1464C48.4075 66.0607 47.332 68.657 47.332 71.3641C47.332 74.0713 48.4075 76.6676 50.3217 78.5819C52.236 80.4961 54.8323 81.5715 57.5394 81.5715V61.1567Z" fill="#3CB9A0"/>
<path d="M63.3738 58.2388C59.8932 58.2388 56.5551 59.6215 54.0939 62.0826C51.6327 64.5438 50.25 67.8819 50.25 71.3626C50.25 74.8432 51.6327 78.1813 54.0939 80.6425C56.5551 83.1037 59.8932 84.4864 63.3738 84.4864V58.2388Z" fill="#0EAA8B"/>
<path d="M63.3715 61.1567C60.6643 61.1567 58.068 62.2322 56.1537 64.1464C54.2395 66.0607 53.1641 68.657 53.1641 71.3641C53.1641 74.0713 54.2395 76.6676 56.1537 78.5819C58.068 80.4961 60.6643 81.5715 63.3715 81.5715V61.1567Z" fill="#3CB9A0"/>
<path d="M39.4969 115.107H60.3608V73.5486C59.0211 73.3145 57.6642 73.1926 56.3041 73.1841C49.8479 73.1841 43.6561 75.7488 39.0909 80.314C34.5257 84.8793 31.9609 91.0711 31.9609 97.5273C31.9609 104.445 34.8598 110.674 39.4969 115.107Z" fill="#0EAA8B"/>
<path d="M59.8384 63.1132V76.2107C58.6701 76.0071 57.4868 75.9008 56.3008 75.8928C53.4593 75.8925 50.6456 76.4518 48.0204 77.5391C45.3951 78.6263 43.0097 80.22 41.0005 82.2292C38.9912 84.2385 37.3975 86.6239 36.3103 89.2491C35.2231 91.8744 34.6637 94.6881 34.6641 97.5296C34.6643 100.969 35.4862 104.359 37.0613 107.417C38.6364 110.475 40.9191 113.112 43.7195 115.11H74.9133V54.8364L59.8384 63.1132Z" fill="#3CB9A0"/>
<path d="M76.3175 56.7817L90.462 71.6962L77.9565 84.8521L77.9506 93.7355L66.46 101.534L58.7578 89.4629L75.2209 72.5186L69.566 66.9104L76.3175 56.7817Z" fill="#0EAA8B"/>
<path d="M76.314 53.1372L92.2492 69.7432C92.2492 69.7432 97.7816 74.1995 92.2492 79.4636C88.9274 82.622 68.1131 96.6412 68.1131 96.6412L61.6328 90.1609L79.2887 72.9833L69.5654 63.2629L76.314 53.1372Z" fill="#3CB9A0"/>
<path d="M64.338 90.4125C61.0599 88.8522 57.9511 89.068 54.9442 90.8266C53.5065 91.6694 52.9203 93.2443 55.1221 93.7663C57.3328 94.2825 64.338 90.4125 64.338 90.4125Z" fill="#EEC2AD"/>
<path d="M68.7546 96.0056C69.16 101.153 62.2627 105.962 57.0307 105.335C53.2918 104.886 50.0371 94.8128 54.473 93.515C58.4276 92.3601 59.5213 88.7671 64.2138 90.1086C67.9409 91.176 68.6058 94.0283 68.7546 96.0056Z" fill="#F7DECE"/>
<path d="M65.2945 97.9945L64.6763 96.7084C64.6763 96.7084 62.4277 100.053 59.3013 101.345C56.9303 102.314 54.9326 102.41 53.8856 102.238C54.3347 103.092 54.3435 103.238 54.9326 103.784C58.1902 103.897 63.396 102.15 65.2945 97.9945ZM58.8289 97.8808C61.7161 95.9034 62.559 94.0136 62.559 94.0136L61.617 92.8208C61.617 92.8208 58.2777 98.0003 52.3516 97.7349C52.3953 98.4582 52.337 98.5982 52.5499 99.339C53.3461 99.3652 56.4841 99.4848 58.8289 97.8808Z" fill="#E0AA94"/>
<path d="M50.4621 24.1417C50.8634 25.0964 51.0727 26.1209 51.078 27.1566C51.0833 28.1922 50.8844 29.2188 50.4928 30.1775C50.1011 31.1363 49.5244 32.0085 48.7956 32.7443C48.0667 33.4801 47.2 34.0651 46.245 34.4657C45.287 34.8605 44.2606 35.0625 43.2245 35.0604C42.1884 35.0582 41.1628 34.8519 40.2065 34.4532C39.2501 34.0545 38.3817 33.4713 37.6509 32.7368C36.9201 32.0024 36.3411 31.1311 35.9472 30.1728C35.546 29.2177 35.337 28.1929 35.3321 27.157C35.3273 26.1211 35.5266 25.0943 35.9188 24.1355C36.311 23.1767 36.8883 22.3046 37.6178 21.569C38.3473 20.8335 39.2146 20.2489 40.1701 19.8487C41.1277 19.4541 42.1537 19.2522 43.1894 19.2544C44.225 19.2566 45.2501 19.463 46.206 19.8617C47.1619 20.2604 48.0298 20.8437 48.7601 21.578C49.4904 22.3124 50.0687 23.1836 50.4621 24.1417Z" fill="#374151"/>
<path d="M66.2384 44.5302C69.7468 40.3452 71.8408 34.9965 70.0414 30.6744L67.0667 23.5088C50.9856 29.5632 44.3683 21.2544 44.3683 21.2544C44.3683 21.2544 47.518 28.8312 40.7578 32.6896L44.3537 41.3455C47.2935 48.4148 51.3006 53.4777 58.3612 50.5759L58.6004 51.5266C59.2011 53.9093 58.7608 55.8371 62.2692 55.9712C64.7219 56.0646 68.0349 51.6841 67.4341 49.3014L66.2384 44.5302Z" fill="#F7DECE"/>
<path d="M84.9834 25.9011C87.3865 19.4792 81.6033 14.5972 76.6804 14.0956C73.694 13.7922 70.9992 15.6967 69.6868 17.9773C63.7053 7.96236 54.7578 10.3217 49.065 12.3253C43.0339 14.4484 34.063 20.6924 37.5831 27.4031C41.1032 34.1166 52.8592 31.2294 52.8592 31.2294L57.1142 38.0888C55.9652 32.186 59.8848 30.8678 61.6959 32.1539C63.6032 33.51 62.3375 37.8584 63.2066 39.5732C64.0757 41.2881 67.0854 43.6387 67.0854 43.6387C68.9344 41.2881 74.7701 33.2038 72.0433 23.4135C73.1719 22.9906 74.8664 23.2764 76.2342 23.9909C79.7105 25.7962 76.972 34.7903 81.8074 37.6338C86.4416 40.3607 89.1597 36.6102 89.1597 36.6102C84.4118 36.7676 82.6882 32.0402 84.9834 25.9011Z" fill="#374151"/>
<path d="M46.8686 44.4802L45.9703 44.8535C45.8762 44.8955 45.7746 44.9182 45.6716 44.9203C45.5685 44.9224 45.4661 44.9039 45.3703 44.8659C45.2746 44.8278 45.1874 44.771 45.1139 44.6988C45.0404 44.6265 44.9821 44.5403 44.9424 44.4452C44.9027 44.3501 44.8825 44.248 44.8828 44.1449C44.8832 44.0419 44.9041 43.9399 44.9445 43.8451C44.9848 43.7502 45.0437 43.6644 45.1177 43.5927C45.1917 43.521 45.2793 43.4648 45.3754 43.4274L46.2765 43.0541C46.3711 43.0098 46.4736 42.985 46.578 42.9814C46.6823 42.9778 46.7864 42.9954 46.8837 43.0331C46.9811 43.0708 47.0698 43.1278 47.1446 43.2008C47.2193 43.2737 47.2785 43.361 47.3185 43.4575C47.3585 43.5539 47.3786 43.6575 47.3775 43.7619C47.3764 43.8663 47.3542 43.9694 47.3121 44.065C47.2701 44.1606 47.2091 44.2467 47.1329 44.318C47.0566 44.3894 46.9667 44.4446 46.8686 44.4802Z" fill="#BF6952"/>
<path d="M47.3125 38.4386C46.9342 38.5952 46.5093 38.5953 46.1309 38.439C45.7525 38.2826 45.4517 37.9825 45.2943 37.6046L44.6965 36.1726C44.5391 35.7936 44.5387 35.3676 44.6954 34.9883C44.8521 34.609 45.153 34.3075 45.532 34.1501C45.911 33.9927 46.337 33.9923 46.7163 34.149C47.0956 34.3057 47.3971 34.6066 47.5545 34.9856L48.1495 36.4147C48.2278 36.6025 48.2683 36.8039 48.2686 37.0074C48.269 37.2109 48.2291 37.4124 48.1513 37.6005C48.0736 37.7885 47.9594 37.9594 47.8155 38.1032C47.6715 38.247 47.5006 38.361 47.3125 38.4386Z" fill="#662113"/>
<path d="M48.0938 47.982C48.8024 48.8424 49.5782 49.5598 50.4152 50.1198C53.492 48.3437 53.7078 45.6489 53.7078 45.6489L48.2396 47.9208L48.0938 47.982Z" fill="#DF1F32"/>
<defs>
<linearGradient id="paint0_linear_18_121" x1="63.3325" y1="0" x2="63.3325" y2="125.665" gradientUnits="userSpaceOnUse">
<stop stop-color="#3CB9A0"/>
<stop offset="1" stop-color="#CFE8E3"/>
</linearGradient>
</defs>
</svg>
