<svg width="127" height="126" viewBox="0 0 127 126" fill="none" xmlns="http://www.w3.org/2000/svg">
<circle cx="66.3441" cy="54.7894" r="26.641" fill="#3CB9A0"/>
<rect x="0.496094" width="125.665" height="125.665" rx="62.8325" fill="url(#paint0_linear_18_179)"/>
<path d="M72.7648 55.4454C71.3996 55.4454 70.3123 55.1823 69.4383 54.7769C68.1308 54.1715 67.2838 53.2385 66.7508 52.3069C66.4851 51.8438 66.3012 51.3833 66.1857 50.9779C66.0701 50.5738 66.0246 50.218 66.0259 50.0059C66.0259 49.6005 65.6984 49.2729 65.2943 49.2729C64.8902 49.2729 64.5625 49.6005 64.5625 50.0059C64.5625 50.2691 64.5948 50.5591 64.6593 50.8785C64.7719 51.4382 64.9813 52.0826 65.3264 52.7497C65.8405 53.7446 66.6594 54.7902 67.8837 55.5823C68.1912 55.785 68.5199 55.9662 68.8771 56.1274C68.9334 56.3702 69.0126 56.7959 69.0114 57.3127C69.0114 57.6871 68.9698 58.1034 68.857 58.5316C68.7441 58.9598 68.5603 59.3948 68.265 59.8202C68.0381 60.1544 68.1187 60.6081 68.4515 60.8378C68.7831 61.0674 69.2383 60.9856 69.4677 60.6527C69.8677 60.0766 70.1215 59.4767 70.272 58.9062C70.421 58.3341 70.4732 57.7892 70.4732 57.3127C70.4732 57.0751 70.4598 56.8508 70.441 56.6496C71.1444 56.812 71.915 56.9086 72.7646 56.9086C73.1687 56.9086 73.4964 56.5812 73.4964 56.177C73.4966 55.7731 73.169 55.4454 72.7648 55.4454Z" fill="#CFE8E3"/>
<path d="M76.0058 46.029C75.6541 45.833 75.2097 45.9538 75.0098 46.307C74.8112 46.6574 74.936 47.103 75.2877 47.303C75.8272 47.6117 76.1549 47.9527 76.3751 48.3058C75.4729 48.6224 74.6755 48.7541 73.9681 48.7541C72.9357 48.7528 72.0915 48.4803 71.3772 48.0615C70.6669 47.644 70.0938 47.0709 69.6576 46.4788C68.9395 45.4988 68.0065 44.6277 66.9057 43.9914C65.805 43.3578 64.5337 42.9604 63.1672 42.9604C61.9711 42.9604 60.7106 43.2692 59.4595 43.9551C58.9494 44.2345 58.5052 44.5619 58.1198 44.9204C56.5988 45.5057 55.29 45.7178 54.1799 45.7178C52.6 45.7151 51.4213 45.2935 50.632 44.8774C50.2387 44.668 49.9446 44.4612 49.7542 44.3109C49.6589 44.2345 49.5877 44.1755 49.5447 44.1351L49.5017 44.0935L49.4936 44.0855C49.213 43.7983 48.7525 43.7901 48.4612 44.0692C48.1713 44.3497 48.1632 44.8116 48.4424 45.1029C48.4853 45.1447 48.9862 45.6573 49.9486 46.1689C50.3699 46.3917 50.8855 46.6105 51.4816 46.7891C51.3233 47.0118 51.1069 47.3394 50.871 47.7527C50.4186 48.5516 49.899 49.6737 49.6359 50.9935C49.554 51.392 49.8118 51.776 50.2077 51.8552C50.6038 51.9358 50.9876 51.6766 51.0668 51.2806C51.2884 50.1679 51.7447 49.1771 52.1434 48.475C52.3435 48.1206 52.5272 47.8428 52.6602 47.6522C52.7273 47.5595 52.7797 47.4857 52.8159 47.44C52.8334 47.4172 52.8469 47.4012 52.8548 47.3904L52.8656 47.3797L52.8669 47.3771C52.9328 47.2951 52.977 47.2024 53.0025 47.1032C53.3742 47.1515 53.7649 47.1784 54.1798 47.1784C54.9476 47.1784 55.7907 47.0872 56.6981 46.8818C56.2457 47.8497 56.0618 48.8618 56.0603 49.7881C56.0631 50.7197 56.2403 51.5681 56.5585 52.2421C56.7315 52.6059 57.1679 52.763 57.5317 52.5897C57.8954 52.4164 58.0526 51.9817 57.8793 51.6164C57.6766 51.1947 57.5208 50.5263 57.5235 49.788C57.5222 48.9906 57.6967 48.1154 58.1089 47.3139C58.5236 46.5139 59.1653 45.7849 60.1627 45.2372C61.2139 44.6598 62.2207 44.4237 63.167 44.4209C64.2477 44.4237 65.2651 44.7349 66.1753 45.2586C67.0828 45.7808 67.8748 46.5191 68.4788 47.342C69.0103 48.0682 69.7219 48.7823 70.6361 49.322C71.5488 49.8617 72.671 50.2175 73.9679 50.2147C74.8257 50.2147 75.7572 50.0618 76.7614 49.7209L76.7627 49.772C76.7627 50.1304 76.7064 50.4564 76.6512 50.6875C76.6244 50.8003 76.5962 50.8928 76.5761 50.9506C76.5667 50.9801 76.56 51.0017 76.5546 51.015L76.5507 51.0258V51.0271C76.4032 51.4015 76.5828 51.8245 76.9574 51.9748C77.3332 52.1238 77.7588 51.9414 77.9091 51.5681C77.9292 51.5157 78.2205 50.7841 78.2246 49.7721C78.2246 49.1921 78.1239 48.5103 77.7843 47.8378C77.4489 47.162 76.8702 46.5164 76.0058 46.029Z" fill="#CFE8E3"/>
<path d="M57.2368 40.5676C57.7405 39.9742 58.4559 39.5071 59.2706 39.1943C60.0854 38.8774 60.993 38.7204 61.8441 38.7204C62.671 38.7204 63.4429 38.872 64.0067 39.1365C64.3759 39.3056 64.8094 39.1447 64.9771 38.7795C65.1464 38.4129 64.9866 37.9767 64.6214 37.8104C63.8052 37.4318 62.844 37.2627 61.8439 37.2612C60.8158 37.2612 59.7445 37.4452 58.7443 37.8292C57.7483 38.213 56.822 38.7997 56.124 39.6253C55.8609 39.9326 55.8998 40.3931 56.2072 40.6534C56.516 40.9165 56.9792 40.8764 57.2368 40.5676Z" fill="#CFE8E3"/>
<path d="M68.5349 21.1288C50.5146 20.0199 35.3402 31.3565 35.6838 49.8265L35.6704 51.498L27.8415 65.3234C27.4199 66.0684 27.3822 66.9718 27.7395 67.7505C28.0966 68.5291 28.8053 69.0888 29.6456 69.2553L34.4838 70.5896L36.0033 85.2486C36.0436 86.6621 36.6719 87.9939 37.7378 88.9215C38.8036 89.8505 40.2105 90.2895 41.6147 90.1323L45.478 90.4398C46.2323 90.3565 46.987 90.5968 47.5519 91.1043C48.1171 91.6091 48.4407 92.3325 48.4407 93.0911V104.611H81.1294C81.1294 104.611 81.1294 99.0256 81.1294 96.7971C81.1294 94.5673 81.8999 89.4717 83.3577 87.1384C88.6576 78.6652 97.2838 74.1574 98.7391 56.7815C100.195 39.4028 89.8241 22.4404 68.5349 21.1288ZM90.2832 50.9273C89.5502 52.1382 88.3649 52.8925 87.0708 53.1154C86.6736 53.1853 86.4049 53.5611 86.4722 53.9598C86.5433 54.357 86.9205 54.627 87.3179 54.5558C87.6146 54.5047 87.9072 54.431 88.1959 54.3383C88.5073 54.9839 88.6629 55.6779 88.6629 56.3693C88.6629 57.1076 88.4872 57.8405 88.1502 58.5035C87.8145 59.1655 87.3179 59.7548 86.6654 60.2139C85.8452 60.7896 84.9122 61.0635 83.986 61.0649C83.9123 61.0649 83.8396 61.0569 83.7672 61.0555C83.751 60.9332 83.7362 60.8125 83.7148 60.693V60.6915C83.5552 59.8445 83.2236 59.0687 82.7712 58.3947L82.716 58.3129L82.641 58.2485C82.0879 57.7732 81.3535 56.9946 80.787 56.2013C80.5011 55.8054 80.2583 55.4039 80.0944 55.0469C79.9293 54.6885 79.8527 54.3769 79.8555 54.193C79.8555 54.1111 79.8676 54.0546 79.8838 54.0171C79.8971 53.9809 79.9105 53.9593 79.9388 53.9298C80.2234 53.6465 80.2234 53.182 79.9388 52.8948C79.6528 52.6115 79.1911 52.6115 78.9065 52.8948C78.7265 53.072 78.5922 53.2866 78.5104 53.5136C78.4259 53.7366 78.3949 53.9686 78.3949 54.1929C78.3975 54.6989 78.5506 55.1795 78.7654 55.6548C79.0916 56.365 79.5774 57.0697 80.105 57.714C80.6005 58.3182 81.1254 58.8618 81.598 59.2779C81.9242 59.776 82.1617 60.3398 82.2785 60.9613C82.3268 61.2232 82.3523 61.4835 82.3577 61.7319V61.7373C82.3577 61.7694 82.359 61.8018 82.359 61.8365C82.359 62.9401 81.9657 63.9858 81.2903 64.8087C80.6139 65.6302 79.6621 66.2275 78.5331 66.4397C78.2391 66.496 77.9464 66.5229 77.659 66.5229C76.1087 66.5242 74.6748 65.7443 73.8131 64.5066C74.2776 64.0354 74.6737 63.4837 74.9743 62.8567V62.858C75.3488 62.0834 75.5461 61.2619 75.5811 60.4485C75.5985 60.0458 75.2871 59.7048 74.8844 59.6874C74.479 59.6686 74.1392 59.9826 74.1204 60.3854C74.095 61.0055 73.9447 61.627 73.6588 62.2204L73.6575 62.2231C73.35 62.858 72.9231 63.3897 72.4129 63.8099L72.4103 63.8112C71.57 64.4971 70.5107 64.8757 69.4275 64.8757C68.7457 64.8757 68.0529 64.7267 67.3951 64.4085C66.1776 63.8233 65.332 62.7803 64.9574 61.5868H64.9561C64.8138 61.1344 64.74 60.6579 64.74 60.1801C64.74 59.4968 64.889 58.804 65.2071 58.145C65.383 57.7812 65.2286 57.3437 64.8649 57.1704C64.5024 56.9946 64.0662 57.1462 63.8903 57.5102C63.4769 58.3692 63.2768 59.2835 63.2768 60.1802C63.2768 60.6152 63.3279 61.0447 63.4165 61.4648C62.846 61.7763 62.203 61.9762 61.5076 62.0258H61.5063C61.3922 62.034 61.2807 62.0392 61.168 62.0392C60.0698 62.0392 59.0538 61.658 58.2482 61.0122C57.5435 60.4485 57.004 59.69 56.7166 58.8066C57.2294 58.3007 57.6563 57.706 57.969 57.0468C58.1408 56.6816 57.985 56.2467 57.6201 56.0748C57.2563 55.9017 56.8173 56.0574 56.6468 56.4238C56.3581 57.0361 55.9365 57.5797 55.4225 58.0133C54.6895 58.6321 53.7658 59.0295 52.7377 59.1035H52.7364C52.6223 59.1115 52.5109 59.1168 52.3996 59.1168C50.0799 59.1168 48.0985 57.4026 47.7628 55.1099L47.7615 55.1032V55.0993C47.7427 54.9891 47.7306 54.875 47.7226 54.7569C47.7147 54.6454 47.7106 54.53 47.7106 54.4173C47.7106 54.1232 47.7388 53.832 47.7912 53.5513C47.8623 53.1539 47.6007 52.7727 47.2034 52.6989C46.8087 52.6278 46.4262 52.8869 46.351 53.2842C46.285 53.6519 46.249 54.0305 46.249 54.4171L46.2503 54.4613C45.5926 54.3875 44.9548 54.1767 44.3843 53.8425C43.662 53.4211 43.0485 52.8036 42.6244 52.0114C42.2472 51.3039 42.0685 50.5509 42.0685 49.8045C42.0685 48.8406 42.368 47.8944 42.9198 47.1036C43.1332 47.4042 43.3734 47.6875 43.6432 47.9532C44.2607 48.5586 44.9749 49.0069 45.7307 49.2995C46.1078 49.4474 46.5295 49.2592 46.6757 48.8808C46.8234 48.5049 46.6341 48.0821 46.2596 47.9357C45.6811 47.7128 45.1386 47.372 44.6687 46.9102V46.9089C44.2526 46.5035 43.9304 46.0416 43.7008 45.5463C43.4056 44.918 43.2579 44.2349 43.2579 43.557C43.259 42.3676 43.7021 41.189 44.5961 40.2762C45.3573 39.5002 46.3157 39.0464 47.3104 38.9083H47.3117H47.3143C47.5265 38.8814 47.7385 38.8667 47.9506 38.8667C49.1374 38.868 50.3173 39.3151 51.2329 40.2078C51.5216 40.4884 51.9832 40.4856 52.2666 40.1958C52.5486 39.9085 52.5432 39.4467 52.2558 39.1634C51.0906 38.0223 49.5818 37.4384 48.0714 37.4116C48.2418 36.7122 48.5695 36.0613 49.0286 35.5135C49.6662 34.7538 50.5375 34.1926 51.5792 33.9523C51.9336 33.8732 52.2825 33.8329 52.6302 33.8329C53.2423 33.8329 53.8383 33.9562 54.3888 34.1792C54.2331 34.7242 54.1471 35.2961 54.1471 35.8895C54.1471 36.2921 54.4735 36.6183 54.8774 36.6183C55.2813 36.6183 55.6075 36.2921 55.6075 35.8895C55.6075 35.2504 55.7379 34.6397 55.9661 34.0853C56.3191 33.2369 56.9165 32.5147 57.6669 32.0046C58.4199 31.4944 59.3207 31.1979 60.2993 31.1979C61.7088 31.1979 62.9667 31.814 63.8284 32.7979C64.5546 33.6235 64.991 34.7027 64.991 35.8895C64.991 36.2921 65.32 36.6183 65.7226 36.6183C66.1267 36.6183 66.4556 36.2921 66.4556 35.8895C66.4556 34.5389 66.018 33.2865 65.2783 32.273C65.6569 31.7495 66.1388 31.3038 66.6971 30.9737C67.3951 30.5629 68.2073 30.3253 69.0786 30.3253C70.0826 30.3253 71.0048 30.6381 71.766 31.1723C72.5299 31.7066 73.1259 32.4638 73.4629 33.3429H73.4616C73.6604 33.8652 73.7691 34.4263 73.7691 35.0183C73.7691 35.4211 74.0979 35.7485 74.5007 35.7485C74.9035 35.7485 75.2336 35.4211 75.2336 35.0183C75.2336 34.4142 75.1409 33.833 74.9785 33.2813C75.8458 32.4759 76.9935 32.0194 78.1788 32.0194C78.7977 32.0194 79.426 32.1417 80.0326 32.4006C80.8783 32.7672 81.5577 33.3457 82.0422 34.0519C82.5269 34.7593 82.8113 35.5889 82.8611 36.4479C82.8665 36.5366 82.8706 36.6239 82.8706 36.7123C82.8678 37.3326 82.7456 37.9582 82.4853 38.5662C82.3257 38.9369 82.4974 39.3664 82.8678 39.5247C83.2396 39.6845 83.6678 39.5139 83.8289 39.1435C84.1001 38.5125 84.2558 37.8614 84.3082 37.2078C85.025 37.2587 85.7229 37.4762 86.3406 37.8413C87.0453 38.2575 87.648 38.8668 88.0589 39.6481C88.4186 40.3314 88.5877 41.0576 88.5892 41.7771C88.5892 42.106 88.5489 42.4322 88.4779 42.7518C88.0402 42.5799 87.5839 42.4645 87.1287 42.3973C86.7313 42.3423 86.3594 42.6215 86.3059 43.0215C86.2481 43.4217 86.5273 43.7907 86.9247 43.8458C87.3851 43.9114 87.8375 44.0431 88.2698 44.2471C88.345 44.3721 88.4604 44.4754 88.6053 44.5386C88.694 44.5774 88.7893 44.5964 88.882 44.5964C89.1517 44.7762 89.3973 44.9789 89.6163 45.2004L89.6176 45.2017C90.4955 46.0862 90.9666 47.2797 90.9666 48.4999C90.9665 49.3284 90.7476 50.1661 90.2832 50.9273Z" fill="#F7DECE"/>
<path d="M82.6869 44.4657C82.3245 44.1528 81.9352 43.8964 81.523 43.7166C81.1095 43.534 80.6745 43.4253 80.2303 43.4253C79.8262 43.4253 79.5 43.7528 79.5 44.1569C79.5 44.561 79.8262 44.8872 80.2303 44.8872C80.4988 44.8872 80.8371 44.9799 81.1968 45.1867C81.7324 45.494 82.2895 46.0471 82.6923 46.7371C83.1005 47.4284 83.3608 48.2486 83.3581 49.0984C83.3554 50.0314 83.0615 51.006 82.2641 51.9737C82.009 52.2838 82.0519 52.7456 82.3633 53.002C82.6748 53.2612 83.1365 53.2155 83.3931 52.9067C84.3958 51.6945 84.824 50.3522 84.8227 49.0984C84.8227 48.3359 84.667 47.6056 84.4119 46.9397C84.0253 45.9423 83.4105 45.091 82.6869 44.4657Z" fill="#CFE8E3"/>
<path d="M77.635 41.1512C75.6254 41.1512 74.0132 40.4103 72.8963 39.4424C72.3378 38.959 71.9109 38.4195 71.6304 37.9013C71.3457 37.3845 71.2168 36.8918 71.2196 36.5226C71.2196 36.12 70.8921 35.7925 70.4893 35.7925C70.0852 35.7925 69.7577 36.12 69.7577 36.5226C69.7603 37.2087 69.9752 37.9147 70.3457 38.5995C70.7364 39.3136 71.3056 40.0075 72.0264 40.6169C71.8814 40.8183 71.6814 41.0814 71.4236 41.3593C70.8677 41.9674 70.0651 42.6399 69.1052 42.9823C68.7281 43.1164 68.528 43.5339 68.6636 43.9151C68.799 44.2964 69.2154 44.4924 69.5979 44.358C70.8987 43.891 71.8706 43.0386 72.5324 42.3122C72.8264 41.9901 73.0546 41.6935 73.2251 41.4572C74.4333 42.1539 75.9273 42.6144 77.6349 42.6144C78.0389 42.6144 78.365 42.2869 78.365 41.8841C78.3652 41.4802 78.0389 41.1512 77.635 41.1512Z" fill="#CFE8E3"/>
<defs>
<linearGradient id="paint0_linear_18_179" x1="63.3285" y1="0" x2="63.3285" y2="125.665" gradientUnits="userSpaceOnUse">
<stop stop-color="#3CB9A0"/>
<stop offset="1" stop-color="#CFE8E3"/>
</linearGradient>
</defs>
</svg>
