<svg width="127" height="126" viewBox="0 0 127 126" fill="none" xmlns="http://www.w3.org/2000/svg">
<rect x="0.828125" width="125.665" height="125.665" rx="62.8325" fill="url(#paint0_linear_18_164)"/>
<path d="M90.7396 66.2515H35.6289C29.69 66.2515 24.8281 70.9289 24.8281 76.6539C24.8281 82.3715 29.69 87.0563 35.6289 87.0563H90.7396C96.6786 87.0563 101.54 82.3789 101.54 76.6539C101.548 70.9289 96.686 66.2515 90.7396 66.2515Z" fill="#EDC391"/>
<path d="M92.519 39.8044C85.4291 29.0184 76.2883 25.3296 63.0086 25.3296C49.7289 25.3296 40.588 29.011 33.4982 39.8044C28.3043 47.7132 27.0502 60.1445 28.6511 72.952C30.193 85.2652 31.4693 92.0231 39.1125 98.9212C45.7524 104.912 54.7678 106.203 62.4995 106.203H63.5176C71.2494 106.203 80.2722 104.912 86.9046 98.9212C94.5478 92.0231 95.8241 85.2652 97.3661 72.952C98.967 60.1445 97.7128 47.7059 92.519 39.8044Z" fill="#F7DECE"/>
<path d="M73.9986 40.9829C74.1018 40.8722 74.2051 40.7689 74.3084 40.6582C74.3822 40.5771 74.456 40.4886 74.5297 40.4074C74.6994 40.2082 74.8617 40.009 75.0167 39.8024L75.0831 39.7139C75.2306 39.5147 75.3634 39.3081 75.4962 39.0942C75.5331 39.0352 75.57 38.9688 75.6069 38.9098C75.7323 38.6958 75.8577 38.4819 75.9757 38.2532C75.9979 38.2163 76.0126 38.1868 76.0274 38.1499C76.3077 37.5965 76.5512 36.999 76.7504 36.3719L76.7725 36.3055C77.1783 34.9996 77.4144 33.5462 77.4144 31.9084C77.4144 28.6328 76.234 26.0432 74.4338 24.0882C74.4117 24.066 74.3969 24.0513 74.3822 24.0291C74.242 23.8816 74.0945 23.734 73.9469 23.5865L73.8584 23.498C73.6867 23.3347 73.5095 23.1772 73.3272 23.0258C73.1796 22.9004 73.0321 22.7823 72.8845 22.6643C72.8476 22.6348 72.8108 22.6126 72.7812 22.5831L72.2943 22.229C72.2648 22.2142 72.2427 22.1921 72.2132 22.1774C71.623 21.779 71.0106 21.4248 70.3761 21.1224C70.354 21.1076 70.3245 21.1002 70.3024 21.0855C70.1179 20.9969 69.9335 20.9158 69.7491 20.8346L69.5794 20.7609C69.4171 20.6945 69.2548 20.6281 69.0924 20.569C69.0334 20.5469 68.967 20.5248 68.908 20.5026C68.7531 20.4436 68.5981 20.392 68.4506 20.3403L68.2514 20.2739C68.0965 20.2223 67.9489 20.178 67.794 20.1338C67.7276 20.1116 67.6612 20.0969 67.5874 20.0747C67.4325 20.0305 67.2776 19.9936 67.1226 19.9567L66.9308 19.9124C66.7611 19.8755 66.5914 19.8387 66.4291 19.8018C66.3775 19.7944 66.3258 19.7796 66.2742 19.7723C65.8389 19.6764 65.4036 19.61 64.9684 19.5583C64.9094 19.5509 64.8503 19.5509 64.7913 19.5436C64.6364 19.5288 64.4888 19.514 64.3339 19.5067C64.2454 19.4993 64.1642 19.4993 64.0757 19.4919C63.9503 19.4845 63.8322 19.4772 63.7142 19.4772C63.6183 19.4772 63.5224 19.4698 63.4191 19.4698C63.3527 19.4698 63.2863 19.4624 63.2273 19.4624H63.1535C62.8362 19.4624 62.519 19.4772 62.2091 19.4993C62.1501 19.5067 62.0911 19.5067 62.0321 19.514C61.7148 19.5436 61.405 19.5731 61.1099 19.6247C57.4875 20.2149 54.5586 22.1183 52.7289 23.9775C51.6297 25.0915 50.9288 26.1908 50.7148 26.9802H50.7222C53.0683 26.3826 56.1005 25.8588 59.4794 25.6817C64.0535 25.3645 67.8751 27.9688 67.6907 31.9674C67.6686 32.447 67.6095 32.897 67.5284 33.3175L67.5063 33.443C67.4694 33.6053 67.4251 33.7676 67.3808 33.9225C67.3587 33.9963 67.3366 34.0701 67.3218 34.1364C67.2776 34.2692 67.2333 34.402 67.1817 34.5348C67.1521 34.616 67.1152 34.6971 67.0784 34.7783C67.0267 34.8963 66.9751 35.007 66.9234 35.1103C66.8792 35.1988 66.8349 35.28 66.7833 35.3611C66.7316 35.457 66.6726 35.5529 66.6136 35.6415C66.5546 35.73 66.4882 35.8185 66.4291 35.9071C66.3775 35.9809 66.3258 36.0546 66.2668 36.1284C66.1709 36.2464 66.0676 36.3571 65.9643 36.4604C65.9348 36.4899 65.9053 36.5268 65.8758 36.5563C65.7356 36.6965 65.5881 36.8219 65.4332 36.9473C65.4036 36.9694 65.3668 36.9916 65.3373 37.0137C65.2117 37.1113 65.0812 37.2024 64.9462 37.2867C64.902 37.3088 64.8651 37.3383 64.8208 37.3605C64.688 37.4416 64.5552 37.5154 64.4224 37.5818C64.3782 37.6039 64.3413 37.6261 64.297 37.6408C64.1568 37.7072 64.0093 37.7736 63.8544 37.8326C63.8248 37.8474 63.788 37.8621 63.7511 37.8695C63.5814 37.9359 63.4117 37.9949 63.2346 38.0466C63.2199 38.054 63.2051 38.054 63.1904 38.0613C62.3936 38.2974 61.5378 38.4007 60.6672 38.4007C58.0408 38.4007 55.3185 37.4269 53.7544 36.0325C53.6252 35.9149 53.457 35.8492 53.2822 35.8481C53.2454 35.8481 53.2085 35.8628 53.179 35.8702C53.1495 35.8776 53.1126 35.8776 53.0831 35.8923C53.0388 35.9071 52.9945 35.9218 52.9503 35.944C52.8765 35.9809 52.8175 36.0251 52.7584 36.0768C52.7437 36.0915 52.7363 36.1063 52.7216 36.121C52.6699 36.18 52.6256 36.2538 52.5888 36.3276C52.5814 36.3424 52.5814 36.3497 52.574 36.3645C52.5371 36.4604 52.515 36.5711 52.5297 36.6891C52.7511 38.9171 54.1528 41.7059 57.4875 43.8011C60.6599 45.8004 67.3366 45.8226 72.0878 42.569L72.2205 42.4805C72.3607 42.3772 72.5083 42.2739 72.6485 42.1707C72.7075 42.1264 72.7739 42.0747 72.8329 42.0231C73.0395 41.8608 73.2387 41.6911 73.4305 41.514L73.7182 41.2485C73.8215 41.1673 73.91 41.0714 73.9986 40.9829Z" fill="#111827"/>
<path d="M73.9986 40.9829C74.1018 40.8722 74.2051 40.7689 74.3084 40.6582C74.3822 40.5771 74.456 40.4886 74.5297 40.4074C74.6994 40.2082 74.8617 40.009 75.0167 39.8024L75.0831 39.7139C75.2306 39.5147 75.3634 39.3081 75.4962 39.0942C75.5331 39.0352 75.57 38.9688 75.6069 38.9098C75.7323 38.6958 75.8577 38.4819 75.9757 38.2532C75.9979 38.2163 76.0126 38.1868 76.0274 38.1499C76.3077 37.5965 76.5512 36.999 76.7504 36.3719L76.7725 36.3055C77.1783 34.9996 77.4144 33.5462 77.4144 31.9084C77.4144 28.6328 76.234 26.0432 74.4338 24.0882C74.4117 24.066 74.3969 24.0513 74.3822 24.0291C74.242 23.8816 74.0945 23.734 73.9469 23.5865L73.8584 23.498C73.6867 23.3347 73.5095 23.1772 73.3272 23.0258C73.1796 22.9004 73.0321 22.7823 72.8845 22.6643C72.8476 22.6348 72.8108 22.6126 72.7812 22.5831L72.2943 22.229C72.2648 22.2142 72.2427 22.1921 72.2132 22.1774C71.623 21.779 71.0106 21.4248 70.3761 21.1224C70.354 21.1076 70.3245 21.1002 70.3024 21.0855C70.1179 20.9969 69.9335 20.9158 69.7491 20.8346L69.5794 20.7609C69.4171 20.6945 69.2548 20.6281 69.0924 20.569C69.0334 20.5469 68.967 20.5248 68.908 20.5026C68.7531 20.4436 68.5981 20.392 68.4506 20.3403L68.2514 20.2739C68.0965 20.2223 67.9489 20.178 67.794 20.1338C67.7276 20.1116 67.6612 20.0969 67.5874 20.0747C67.4325 20.0305 67.2776 19.9936 67.1226 19.9567L66.9308 19.9124C66.7611 19.8755 66.5914 19.8387 66.4291 19.8018C66.3775 19.7944 66.3258 19.7796 66.2742 19.7723C65.8389 19.6764 65.4036 19.61 64.9684 19.5583C64.9094 19.5509 64.8503 19.5509 64.7913 19.5436C64.6364 19.5288 64.4888 19.514 64.3339 19.5067C64.2454 19.4993 64.1642 19.4993 64.0757 19.4919C63.9503 19.4845 63.8322 19.4772 63.7142 19.4772C63.6183 19.4772 63.5224 19.4698 63.4191 19.4698C63.3527 19.4698 63.2863 19.4624 63.2273 19.4624H63.1535C62.8362 19.4624 62.519 19.4772 62.2091 19.4993C62.1501 19.5067 62.0911 19.5067 62.0321 19.514C61.7148 19.5436 61.405 19.5731 61.1099 19.6247C57.4875 20.2149 54.5586 22.1183 52.7289 23.9775C51.6297 25.0915 50.9288 26.1908 50.7148 26.9802H50.7222C53.0683 26.3826 56.1005 25.8588 59.4794 25.6817C64.0535 25.3645 67.8751 27.9688 67.6907 31.9674C67.6686 32.447 67.6095 32.897 67.5284 33.3175L67.5063 33.443C67.4694 33.6053 67.4251 33.7676 67.3808 33.9225C67.3587 33.9963 67.3366 34.0701 67.3218 34.1364C67.2776 34.2692 67.2333 34.402 67.1817 34.5348C67.1521 34.616 67.1152 34.6971 67.0784 34.7783C67.0267 34.8963 66.9751 35.007 66.9234 35.1103C66.8792 35.1988 66.8349 35.28 66.7833 35.3611C66.7316 35.457 66.6726 35.5529 66.6136 35.6415C66.5546 35.73 66.4882 35.8185 66.4291 35.9071C66.3775 35.9809 66.3258 36.0546 66.2668 36.1284C66.1709 36.2464 66.0676 36.3571 65.9643 36.4604C65.9348 36.4899 65.9053 36.5268 65.8758 36.5563C65.7356 36.6965 65.5881 36.8219 65.4332 36.9473C65.4036 36.9694 65.3668 36.9916 65.3373 37.0137C65.2117 37.1113 65.0812 37.2024 64.9462 37.2867C64.902 37.3088 64.8651 37.3383 64.8208 37.3605C64.688 37.4416 64.5552 37.5154 64.4224 37.5818C64.3782 37.6039 64.3413 37.6261 64.297 37.6408C64.1568 37.7072 64.0093 37.7736 63.8544 37.8326C63.8248 37.8474 63.788 37.8621 63.7511 37.8695C63.5814 37.9359 63.4117 37.9949 63.2346 38.0466C63.2199 38.054 63.2051 38.054 63.1904 38.0613C62.3936 38.2974 61.5378 38.4007 60.6672 38.4007C58.0408 38.4007 55.3185 37.4269 53.7544 36.0325C53.6252 35.9149 53.457 35.8492 53.2822 35.8481C53.2454 35.8481 53.2085 35.8628 53.179 35.8702C53.1495 35.8776 53.1126 35.8776 53.0831 35.8923C53.0388 35.9071 52.9945 35.9218 52.9503 35.944C52.8765 35.9809 52.8175 36.0251 52.7584 36.0768C52.7437 36.0915 52.7363 36.1063 52.7216 36.121C52.6699 36.18 52.6256 36.2538 52.5888 36.3276C52.5814 36.3424 52.5814 36.3497 52.574 36.3645C52.5371 36.4604 52.515 36.5711 52.5297 36.6891C52.7511 38.9171 54.1528 41.7059 57.4875 43.8011C60.6599 45.8004 67.3366 45.8226 72.0878 42.569L72.2205 42.4805C72.3607 42.3772 72.5083 42.2739 72.6485 42.1707C72.7075 42.1264 72.7739 42.0748 72.8329 42.0231C73.0395 41.8608 73.2387 41.6911 73.4305 41.5141L73.7182 41.2485C73.8215 41.1673 73.91 41.0714 73.9986 40.9829Z" fill="#3CB9A0"/>
<path d="M67.0324 76.6373C66.9332 76.5966 66.829 76.5693 66.7226 76.5562H59.8614C59.7581 76.5709 59.6548 76.593 59.5516 76.6373C58.9318 76.8881 58.5851 77.5374 58.8802 78.2161C59.1753 78.9022 60.5402 80.8278 63.292 80.8278C66.0438 80.8278 67.4087 78.9022 67.7038 78.2161C67.9915 77.53 67.6522 76.8881 67.0324 76.6373Z" fill="#DBA689"/>
<path d="M47.1479 77.3124C49.7882 77.3124 51.9286 75.096 51.9286 72.362C51.9286 69.628 49.7882 67.4116 47.1479 67.4116C44.5076 67.4116 42.3672 69.628 42.3672 72.362C42.3672 75.096 44.5076 77.3124 47.1479 77.3124Z" fill="#111827"/>
<path d="M79.4018 77.3124C82.0421 77.3124 84.1825 75.096 84.1825 72.362C84.1825 69.628 82.0421 67.4116 79.4018 67.4116C76.7615 67.4116 74.6211 69.628 74.6211 72.362C74.6211 75.096 76.7615 77.3124 79.4018 77.3124Z" fill="#111827"/>
<path d="M71.2923 90.5754C68.6364 92.1542 59.9308 92.1542 57.2823 90.5754C55.7551 89.6679 54.1984 91.0549 54.8329 92.4419C55.4526 93.8068 60.2038 96.9644 64.3131 96.9644C68.4151 96.9644 73.1072 93.8068 73.7269 92.4419C74.354 91.0549 72.8121 89.6679 71.2923 90.5754Z" fill="#6B7280"/>
<defs>
<linearGradient id="paint0_linear_18_164" x1="63.6606" y1="0" x2="63.6606" y2="125.665" gradientUnits="userSpaceOnUse">
<stop stop-color="#3CB9A0"/>
<stop offset="1" stop-color="#CFE8E3"/>
</linearGradient>
</defs>
</svg>
